<svg width="2937" height="1067" viewBox="0 0 2937 1067" fill="none" xmlns="http://www.w3.org/2000/svg">
<rect x="1064" width="1873" height="1067" fill="#2542FD"/>
<rect x="52" y="47.9883" width="966" height="946" fill="white"/>
<path d="M0 533.334V1066.67H533.333H1066.67V533.334V0.00026989H533.333H0V533.334ZM410 282C451.733 289.334 489.2 322.8 499.333 361.867C500.667 367.2 501.733 382 502.667 405.867C503.467 425.734 504.4 444.134 504.8 446.667C506.267 454.934 514.8 469.2 524.267 479.067L533.333 488.667L542 479.734C550.667 470.667 555.733 462.534 558.667 452.667C559.467 449.734 560.667 433.334 561.333 416.267C563.467 360 568.933 342.8 592.533 317.734C611.2 297.867 628.933 287.6 652.933 282.8C675.467 278.134 692.8 279.6 714.4 288C747.867 300.934 771.867 327.2 782.133 362.267C789.867 388.8 787.2 414.534 773.6 445.334C766 462.8 744 483.2 721.2 493.867C704.4 501.867 698.933 502.8 658.667 504C618.4 505.334 611.067 506.667 596 514.934C587.6 519.6 572 531.6 572 533.467C572 535.6 588.4 546.8 599.733 552.267C610.8 557.6 611.067 557.734 631.733 558.8C702.133 562.667 697.2 562.134 709.467 566.534C736.667 576.534 760.533 595.867 771.867 617.334C778 629.067 783.867 647.067 785.6 660.134C788.4 680.934 783.867 704.134 772.4 728C763.467 746.534 736.4 769.734 713.067 778.667C680 791.467 644.133 787.734 615.067 768.4C604 761.067 586.133 743.6 579.467 733.467C566.4 713.734 563.067 698 561.467 649.067C560.133 614 559.2 607.6 553.467 597.867C549.733 591.6 534.4 574.667 532.533 574.667C530 574.667 516.667 589.867 512 598C506.133 608.134 504.4 620.267 502.8 661.6C502 680.4 500.667 698.934 499.867 702.934C499.067 706.8 495.467 716.134 492 723.467C477.333 753.867 446.133 777.467 412 784C401.2 786.134 379.067 785.734 368.667 783.334C337.467 776.134 310.533 756.8 294.4 729.867C288.667 720.267 286.4 714.534 282.4 698C280.267 689.334 280.8 656.8 283.333 644.667C289.733 613.734 313.467 585.867 347.067 570C361.467 563.067 371.6 561.467 410.133 560.134C456 558.4 461.333 557.2 479.733 545.467C493.067 536.934 495.333 534.4 493.467 530.934C491.6 527.467 477.067 517.867 463.333 510.934L452.533 505.6L412.533 504.134C390.533 503.334 369.2 502 365.2 501.2C355.733 499.334 335.2 489.6 324.8 482.134C314.133 474.534 301.733 461.334 295.6 451.2C275.333 417.6 275.067 368.667 294.8 335.067C300.4 325.467 320.8 304.8 331.2 298C355.067 282.534 381.733 277.067 410 282Z" fill="#2542FD"/>
<path d="M382.667 318.788C352.534 322.121 326.934 345.188 319.201 375.988C316.001 388.388 317.201 407.188 321.601 418.121C332.134 443.721 353.734 461.721 378.267 465.321C383.201 465.988 398.134 466.655 411.334 466.655C438.267 466.655 455.734 468.388 466.667 471.988C470.667 473.321 474.134 474.255 474.534 473.988C474.8 473.721 473.334 468.921 471.467 463.321C468.4 454.655 467.734 449.588 466.667 428.255C463.867 376.388 463.067 369.721 457.867 359.855C455.334 354.921 450 347.055 446 342.388C440.134 335.188 436.934 332.655 427.2 327.721C410.934 319.455 399.067 317.055 382.667 318.788Z" fill="#2542FD"/>
<path d="M650.933 321.855C633.066 328.521 616.533 343.188 608.533 359.455C603.199 370.121 602.399 376.521 600.133 422.255C598.933 446.788 598.399 450.388 594.666 461.321C592.533 467.988 590.666 473.721 590.666 473.988C590.666 474.121 595.333 472.921 601.066 471.055C610.533 467.988 614.133 467.588 651.333 466.521C686.266 465.588 692.399 465.055 699.333 462.655C729.733 452.255 751.999 417.455 748.799 385.721C746.399 361.988 728.933 336.655 707.733 325.855C692.399 318.121 666.133 316.255 650.933 321.855Z" fill="#2542FD"/>
<path d="M463.2 593.322C452.4 597.188 435.6 598.655 407.867 598.522C387.067 598.255 380.267 598.655 373.467 600.522C346.933 607.722 326.133 628.655 319.333 655.322C310.933 688.388 328.4 725.722 359.6 740.922L370 745.988H391.333H412.667L423.2 740.788C438.267 733.455 449.733 721.722 457.867 705.188L464.133 692.522L465.333 665.322C467.467 617.188 468 612.255 474 593.588C475.2 589.855 472.933 589.855 463.2 593.322Z" fill="#2542FD"/>
<path d="M592 591.722C592 592.388 593.467 597.588 595.2 603.455C598.933 615.855 599.6 622.522 601.333 662.388C602.8 695.588 604.4 702.788 612.933 715.588C628.933 739.722 663.467 753.055 691.333 745.988C710.133 741.188 724.667 730.788 735.867 713.855C755.733 684.255 752.4 648.788 727.333 621.588C709.2 601.988 703.333 600.122 653.333 598.655C617.2 597.588 610.4 596.788 598.8 592.655C592 590.255 592 590.255 592 591.722Z" fill="#2542FD"/>
<path d="M1400.12 351.364V715H1341.53L1170.19 467.308H1167.17V715H1101.3V351.364H1160.25L1331.41 599.233H1334.61V351.364H1400.12ZM1816.83 533.182C1816.83 572.363 1809.49 605.921 1794.81 633.857C1780.25 661.674 1760.37 682.981 1735.15 697.777C1710.06 712.573 1681.59 719.972 1649.75 719.972C1617.91 719.972 1589.38 712.573 1564.17 697.777C1539.07 682.862 1519.19 661.496 1504.51 633.679C1489.95 605.743 1482.67 572.244 1482.67 533.182C1482.67 494.001 1489.95 460.502 1504.51 432.685C1519.19 404.749 1539.07 383.383 1564.17 368.587C1589.38 353.79 1617.91 346.392 1649.75 346.392C1681.59 346.392 1710.06 353.79 1735.15 368.587C1760.37 383.383 1780.25 404.749 1794.81 432.685C1809.49 460.502 1816.83 494.001 1816.83 533.182ZM1750.6 533.182C1750.6 505.601 1746.28 482.341 1737.64 463.402C1729.12 444.344 1717.28 429.962 1702.13 420.256C1686.98 410.431 1669.52 405.518 1649.75 405.518C1629.98 405.518 1612.52 410.431 1597.37 420.256C1582.22 429.962 1570.32 444.344 1561.68 463.402C1553.16 482.341 1548.9 505.601 1548.9 533.182C1548.9 560.762 1553.16 584.081 1561.68 603.139C1570.32 622.079 1582.22 636.461 1597.37 646.286C1612.52 655.992 1629.98 660.845 1649.75 660.845C1669.52 660.845 1686.98 655.992 1702.13 646.286C1717.28 636.461 1729.12 622.079 1737.64 603.139C1746.28 584.081 1750.6 560.762 1750.6 533.182ZM2022.33 715H1899.11V351.364H2024.82C2060.92 351.364 2091.94 358.643 2117.86 373.203C2143.9 387.644 2163.91 408.419 2177.87 435.526C2191.84 462.633 2198.82 495.066 2198.82 532.827C2198.82 570.705 2191.78 603.258 2177.7 630.483C2163.73 657.708 2143.55 678.601 2117.15 693.161C2090.87 707.72 2059.26 715 2022.33 715ZM1964.98 658.004H2019.14C2044.47 658.004 2065.6 653.388 2082.52 644.155C2099.45 634.804 2112.18 620.895 2120.7 602.429C2129.22 583.845 2133.48 560.644 2133.48 532.827C2133.48 505.009 2129.22 481.927 2120.7 463.58C2112.18 445.114 2099.57 431.323 2082.88 422.209C2066.31 412.976 2045.71 408.359 2021.09 408.359H1964.98V658.004ZM2347.29 351.364V715H2281.41V351.364H2347.29ZM2485.32 715H2415.01L2543.02 351.364H2624.34L2752.54 715H2682.23L2585.1 425.938H2582.26L2485.32 715ZM2487.63 572.422H2679.39V625.334H2487.63V572.422Z" fill="white"/>
</svg>
