<svg width="1067" height="1067" viewBox="0 0 1067 1067" fill="none" xmlns="http://www.w3.org/2000/svg">
<rect x="102" y="31" width="953" height="943" fill="black"/>
<path d="M0 533.334V1066.67H533.333H1066.67V533.334V0.00026989H533.333H0V533.334ZM410 282C451.733 289.334 489.2 322.8 499.333 361.867C500.667 367.2 501.733 382 502.667 405.867C503.467 425.734 504.4 444.134 504.8 446.667C506.267 454.934 514.8 469.2 524.267 479.067L533.333 488.667L542 479.734C550.667 470.667 555.733 462.534 558.667 452.667C559.467 449.734 560.667 433.334 561.333 416.267C563.467 360 568.933 342.8 592.533 317.734C611.2 297.867 628.933 287.6 652.933 282.8C675.467 278.134 692.8 279.6 714.4 288C747.867 300.934 771.867 327.2 782.133 362.267C789.867 388.8 787.2 414.534 773.6 445.334C766 462.8 744 483.2 721.2 493.867C704.4 501.867 698.933 502.8 658.667 504C618.4 505.334 611.067 506.667 596 514.934C587.6 519.6 572 531.6 572 533.467C572 535.6 588.4 546.8 599.733 552.267C610.8 557.6 611.067 557.734 631.733 558.8C702.133 562.667 697.2 562.134 709.467 566.534C736.667 576.534 760.533 595.867 771.867 617.334C778 629.067 783.867 647.067 785.6 660.134C788.4 680.934 783.867 704.134 772.4 728C763.467 746.534 736.4 769.734 713.067 778.667C680 791.467 644.133 787.734 615.067 768.4C604 761.067 586.133 743.6 579.467 733.467C566.4 713.734 563.067 698 561.467 649.067C560.133 614 559.2 607.6 553.467 597.867C549.733 591.6 534.4 574.667 532.533 574.667C530 574.667 516.667 589.867 512 598C506.133 608.134 504.4 620.267 502.8 661.6C502 680.4 500.667 698.934 499.867 702.934C499.067 706.8 495.467 716.134 492 723.467C477.333 753.867 446.133 777.467 412 784C401.2 786.134 379.067 785.734 368.667 783.334C337.467 776.134 310.533 756.8 294.4 729.867C288.667 720.267 286.4 714.534 282.4 698C280.267 689.334 280.8 656.8 283.333 644.667C289.733 613.734 313.467 585.867 347.067 570C361.467 563.067 371.6 561.467 410.133 560.134C456 558.4 461.333 557.2 479.733 545.467C493.067 536.934 495.333 534.4 493.467 530.934C491.6 527.467 477.067 517.867 463.333 510.934L452.533 505.6L412.533 504.134C390.533 503.334 369.2 502 365.2 501.2C355.733 499.334 335.2 489.6 324.8 482.134C314.133 474.534 301.733 461.334 295.6 451.2C275.333 417.6 275.067 368.667 294.8 335.067C300.4 325.467 320.8 304.8 331.2 298C355.067 282.534 381.733 277.067 410 282Z" fill="white"/>
<path d="M382.666 318.8C352.533 322.134 326.933 345.2 319.2 376C316 388.4 317.2 407.2 321.6 418.134C332.133 443.734 353.733 461.734 378.266 465.334C383.2 466 398.133 466.667 411.333 466.667C438.266 466.667 455.733 468.4 466.666 472C470.666 473.334 474.133 474.267 474.533 474C474.8 473.734 473.333 468.934 471.466 463.334C468.4 454.667 467.733 449.6 466.666 428.267C463.866 376.4 463.066 369.734 457.866 359.867C455.333 354.934 450 347.067 446 342.4C440.133 335.2 436.933 332.667 427.2 327.734C410.933 319.467 399.066 317.067 382.666 318.8Z" fill="white"/>
<path d="M650.934 321.867C633.067 328.534 616.534 343.2 608.534 359.467C603.2 370.134 602.4 376.534 600.134 422.267C598.934 446.8 598.4 450.4 594.667 461.334C592.534 468 590.667 473.734 590.667 474C590.667 474.134 595.334 472.934 601.067 471.067C610.534 468 614.134 467.6 651.334 466.534C686.267 465.6 692.4 465.067 699.334 462.667C729.734 452.267 752 417.467 748.8 385.734C746.4 362 728.934 336.667 707.734 325.867C692.4 318.134 666.134 316.267 650.934 321.867Z" fill="white"/>
<path d="M463.2 593.334C452.4 597.2 435.6 598.667 407.867 598.534C387.067 598.267 380.267 598.667 373.467 600.534C346.933 607.734 326.133 628.667 319.333 655.334C310.933 688.4 328.4 725.734 359.6 740.934L370 746H391.333H412.667L423.2 740.8C438.267 733.467 449.733 721.734 457.867 705.2L464.133 692.534L465.333 665.334C467.467 617.2 468 612.267 474 593.6C475.2 589.867 472.933 589.867 463.2 593.334Z" fill="white"/>
<path d="M592 591.734C592 592.4 593.467 597.6 595.2 603.467C598.933 615.867 599.6 622.534 601.333 662.4C602.8 695.6 604.4 702.8 612.933 715.6C628.933 739.734 663.467 753.067 691.333 746C710.133 741.2 724.667 730.8 735.867 713.867C755.733 684.267 752.4 648.8 727.333 621.6C709.2 602 703.333 600.134 653.333 598.667C617.2 597.6 610.4 596.8 598.8 592.667C592 590.267 592 590.267 592 591.734Z" fill="white"/>
</svg>
