<svg width="2924" height="1067" viewBox="0 0 2924 1067" fill="none" xmlns="http://www.w3.org/2000/svg">
<rect x="1051" width="1873" height="1067" fill="white"/>
<path d="M1387.12 351.364V715H1328.53L1157.19 467.308H1154.17V715H1088.3V351.364H1147.25L1318.41 599.233H1321.61V351.364H1387.12ZM1803.83 533.182C1803.83 572.363 1796.49 605.921 1781.81 633.857C1767.25 661.674 1747.37 682.981 1722.15 697.777C1697.06 712.573 1668.59 719.972 1636.75 719.972C1604.91 719.972 1576.38 712.573 1551.17 697.777C1526.07 682.862 1506.19 661.496 1491.51 633.679C1476.95 605.743 1469.67 572.244 1469.67 533.182C1469.67 494.001 1476.95 460.502 1491.51 432.685C1506.19 404.749 1526.07 383.383 1551.17 368.587C1576.38 353.79 1604.91 346.392 1636.75 346.392C1668.59 346.392 1697.06 353.79 1722.15 368.587C1747.37 383.383 1767.25 404.749 1781.81 432.685C1796.49 460.502 1803.83 494.001 1803.83 533.182ZM1737.6 533.182C1737.6 505.601 1733.28 482.341 1724.64 463.402C1716.12 444.344 1704.28 429.962 1689.13 420.256C1673.98 410.431 1656.52 405.518 1636.75 405.518C1616.98 405.518 1599.52 410.431 1584.37 420.256C1569.22 429.962 1557.32 444.344 1548.68 463.402C1540.16 482.341 1535.9 505.601 1535.9 533.182C1535.9 560.762 1540.16 584.081 1548.68 603.139C1557.32 622.079 1569.22 636.461 1584.37 646.286C1599.52 655.992 1616.98 660.845 1636.75 660.845C1656.52 660.845 1673.98 655.992 1689.13 646.286C1704.28 636.461 1716.12 622.079 1724.64 603.139C1733.28 584.081 1737.6 560.762 1737.6 533.182ZM2009.33 715H1886.11V351.364H2011.82C2047.92 351.364 2078.94 358.643 2104.86 373.203C2130.9 387.644 2150.91 408.419 2164.87 435.526C2178.84 462.633 2185.82 495.066 2185.82 532.827C2185.82 570.705 2178.78 603.258 2164.7 630.483C2150.73 657.708 2130.55 678.601 2104.15 693.161C2077.87 707.72 2046.26 715 2009.33 715ZM1951.98 658.004H2006.14C2031.47 658.004 2052.6 653.388 2069.52 644.155C2086.45 634.804 2099.18 620.895 2107.7 602.429C2116.22 583.845 2120.48 560.644 2120.48 532.827C2120.48 505.009 2116.22 481.927 2107.7 463.58C2099.18 445.114 2086.57 431.323 2069.88 422.209C2053.31 412.976 2032.71 408.359 2008.09 408.359H1951.98V658.004ZM2334.29 351.364V715H2268.41V351.364H2334.29ZM2472.32 715H2402.01L2530.02 351.364H2611.34L2739.54 715H2669.23L2572.1 425.938H2569.26L2472.32 715ZM2474.63 572.422H2666.39V625.334H2474.63V572.422Z" fill="black"/>
<rect x="102" y="31" width="953" height="943" fill="black"/>
<path d="M0 533.334V1066.67H533.333H1066.67V533.334V0.00026989H533.333H0V533.334ZM410 282C451.733 289.334 489.2 322.8 499.333 361.867C500.667 367.2 501.733 382 502.667 405.867C503.467 425.734 504.4 444.134 504.8 446.667C506.267 454.934 514.8 469.2 524.267 479.067L533.333 488.667L542 479.734C550.667 470.667 555.733 462.534 558.667 452.667C559.467 449.734 560.667 433.334 561.333 416.267C563.467 360 568.933 342.8 592.533 317.734C611.2 297.867 628.933 287.6 652.933 282.8C675.467 278.134 692.8 279.6 714.4 288C747.867 300.934 771.867 327.2 782.133 362.267C789.867 388.8 787.2 414.534 773.6 445.334C766 462.8 744 483.2 721.2 493.867C704.4 501.867 698.933 502.8 658.667 504C618.4 505.334 611.067 506.667 596 514.934C587.6 519.6 572 531.6 572 533.467C572 535.6 588.4 546.8 599.733 552.267C610.8 557.6 611.067 557.734 631.733 558.8C702.133 562.667 697.2 562.134 709.467 566.534C736.667 576.534 760.533 595.867 771.867 617.334C778 629.067 783.867 647.067 785.6 660.134C788.4 680.934 783.867 704.134 772.4 728C763.467 746.534 736.4 769.734 713.067 778.667C680 791.467 644.133 787.734 615.067 768.4C604 761.067 586.133 743.6 579.467 733.467C566.4 713.734 563.067 698 561.467 649.067C560.133 614 559.2 607.6 553.467 597.867C549.733 591.6 534.4 574.667 532.533 574.667C530 574.667 516.667 589.867 512 598C506.133 608.134 504.4 620.267 502.8 661.6C502 680.4 500.667 698.934 499.867 702.934C499.067 706.8 495.467 716.134 492 723.467C477.333 753.867 446.133 777.467 412 784C401.2 786.134 379.067 785.734 368.667 783.334C337.467 776.134 310.533 756.8 294.4 729.867C288.667 720.267 286.4 714.534 282.4 698C280.267 689.334 280.8 656.8 283.333 644.667C289.733 613.734 313.467 585.867 347.067 570C361.467 563.067 371.6 561.467 410.133 560.134C456 558.4 461.333 557.2 479.733 545.467C493.067 536.934 495.333 534.4 493.467 530.934C491.6 527.467 477.067 517.867 463.333 510.934L452.533 505.6L412.533 504.134C390.533 503.334 369.2 502 365.2 501.2C355.733 499.334 335.2 489.6 324.8 482.134C314.133 474.534 301.733 461.334 295.6 451.2C275.333 417.6 275.067 368.667 294.8 335.067C300.4 325.467 320.8 304.8 331.2 298C355.067 282.534 381.733 277.067 410 282Z" fill="white"/>
<path d="M382.666 318.8C352.533 322.134 326.933 345.2 319.2 376C316 388.4 317.2 407.2 321.6 418.134C332.133 443.734 353.733 461.734 378.266 465.334C383.2 466 398.133 466.667 411.333 466.667C438.266 466.667 455.733 468.4 466.666 472C470.666 473.334 474.133 474.267 474.533 474C474.8 473.734 473.333 468.934 471.466 463.334C468.4 454.667 467.733 449.6 466.666 428.267C463.866 376.4 463.066 369.734 457.866 359.867C455.333 354.934 450 347.067 446 342.4C440.133 335.2 436.933 332.667 427.2 327.734C410.933 319.467 399.066 317.067 382.666 318.8Z" fill="white"/>
<path d="M650.934 321.867C633.067 328.534 616.534 343.2 608.534 359.467C603.2 370.134 602.4 376.534 600.134 422.267C598.934 446.8 598.4 450.4 594.667 461.334C592.534 468 590.667 473.734 590.667 474C590.667 474.134 595.334 472.934 601.067 471.067C610.534 468 614.134 467.6 651.334 466.534C686.267 465.6 692.4 465.067 699.334 462.667C729.734 452.267 752 417.467 748.8 385.734C746.4 362 728.934 336.667 707.734 325.867C692.4 318.134 666.134 316.267 650.934 321.867Z" fill="white"/>
<path d="M463.2 593.334C452.4 597.2 435.6 598.667 407.867 598.534C387.067 598.267 380.267 598.667 373.467 600.534C346.933 607.734 326.133 628.667 319.333 655.334C310.933 688.4 328.4 725.734 359.6 740.934L370 746H391.333H412.667L423.2 740.8C438.267 733.467 449.733 721.734 457.867 705.2L464.133 692.534L465.333 665.334C467.467 617.2 468 612.267 474 593.6C475.2 589.867 472.933 589.867 463.2 593.334Z" fill="white"/>
<path d="M592 591.734C592 592.4 593.467 597.6 595.2 603.467C598.933 615.867 599.6 622.534 601.333 662.4C602.8 695.6 604.4 702.8 612.933 715.6C628.933 739.734 663.467 753.067 691.333 746C710.133 741.2 724.667 730.8 735.867 713.867C755.733 684.267 752.4 648.8 727.333 621.6C709.2 602 703.333 600.134 653.333 598.667C617.2 597.6 610.4 596.8 598.8 592.667C592 590.267 592 590.267 592 591.734Z" fill="white"/>
</svg>
