<svg width="2428" height="558" viewBox="0 0 2428 558" fill="none" xmlns="http://www.w3.org/2000/svg">
<path d="M119.293 12.0712C93.9451 16.6982 70.0057 29.9755 52.1014 49.8915C37.617 65.9853 31.1795 78.0556 26.1503 98.7763C16.2928 140.419 26.3514 183.47 52.9061 210.829C64.5741 223.101 82.076 234.567 98.1697 240.804C110.642 245.632 114.867 246.235 155.302 247.442L198.957 248.85L213.642 256.093C221.689 260.116 231.949 266.554 236.375 270.376C245.83 278.423 245.427 279.227 226.92 291.7C208.814 303.77 199.761 305.581 155.906 306.587C113.459 307.392 104.607 309.202 83.0818 321.071C56.7284 335.757 36.0077 360.3 27.7596 387.056C21.9256 405.161 21.5233 446.401 26.7538 460.081C28.5643 464.909 29.5702 468.731 28.9667 468.731C28.3631 468.731 31.1795 474.968 35.203 482.411C53.5096 517.415 89.9217 541.354 129.15 544.573C178.638 548.395 227.322 516.61 245.025 468.731C249.451 456.862 250.054 451.229 251.463 410.392C252.871 362.513 254.078 356.477 264.136 340.786C266.953 336.36 271.982 330.124 275.603 326.905L282.041 320.87L292.703 332.538C308.797 349.638 311.814 360.903 311.814 404.155C311.814 459.679 319.861 483.417 348.025 511.179C394.496 557.448 461.687 556.442 509.164 508.966C521.636 496.493 525.458 491.061 530.89 477.985C547.386 438.354 546.581 406.77 528.476 368.347C517.009 343.804 487.839 320.468 456.658 310.811C448.41 308.196 435.937 307.19 408.377 306.587C387.857 305.983 367.539 304.776 363.113 303.569C353.658 300.954 337.765 292.102 328.109 284.257L321.269 278.423L330.925 269.974C342.593 259.714 357.681 252.27 371.964 249.454C377.798 248.448 396.507 247.442 413.205 247.442C434.127 247.442 447.404 246.436 455.451 244.425C474.964 239.395 494.478 227.727 509.968 212.237C521.435 200.77 525.458 195.138 530.89 182.061C546.38 144.845 546.783 115.474 532.097 80.2685C513.187 35.0048 460.681 4.82903 414.009 12.0712C384.236 16.6982 365.326 26.7568 343.8 49.8915C319.861 75.4404 311.814 100.788 311.814 151.081C311.814 191.315 308.797 202.782 293.507 219.882L283.047 231.55L274.396 223.101C269.769 218.474 262.929 209.22 259.308 202.581C252.468 189.505 252.468 190.712 250.658 128.751C250.054 106.018 249.049 99.3798 244.824 87.7118C232.552 54.5185 203.383 26.7568 169.787 16.2958C154.498 11.4677 133.174 9.65716 119.293 12.0712ZM166.97 57.5361C173.006 60.3525 180.851 64.7782 184.674 67.7958C192.519 73.831 206.199 93.747 209.418 104.409C210.625 108.433 212.435 129.757 213.24 151.886C214.246 185.884 215.252 193.931 218.873 204.19C224.103 218.474 224.103 217.87 219.677 215.456C210.021 210.226 183.869 207.208 153.291 207.409C125.328 207.811 120.5 207.208 110.441 203.386C94.1463 197.149 84.2889 189.304 74.8338 175.02C59.9471 152.892 56.7284 130.964 64.3729 105.817C78.0526 61.9618 126.334 39.0282 166.97 57.5361ZM455.853 56.5302C477.781 64.7782 497.697 89.7236 502.927 115.272C510.974 154.903 482.609 199.161 444.587 206.202C440.765 206.806 420.849 207.61 400.33 207.811C369.349 208.415 361.302 209.018 352.048 212.438L340.984 216.261L345.812 202.179C350.037 189.907 350.841 183.067 352.048 148.868C353.054 113.462 353.859 108.433 358.285 97.7704C367.338 76.0439 389.869 57.1337 412.802 52.3056C424.47 49.8915 442.777 51.7021 455.853 56.5302ZM222.293 341.39C215.855 357.081 214.648 365.329 213.441 404.356C212.234 445.194 212.234 445.597 205.797 459.075C197.347 476.979 185.478 489.452 169.183 497.499C157.113 503.333 154.297 503.936 136.795 503.936C119.293 503.936 116.476 503.333 104.406 497.499C63.5682 477.382 48.2791 424.876 71.4139 385.245C78.0526 374.181 91.1287 360.903 100.181 356.276C116.879 347.827 130.156 345.413 153.693 346.821C177.029 348.229 198.756 346.218 212.435 341.188C223.097 337.366 223.902 337.366 222.293 341.39ZM405.359 347.022C452.031 347.425 460.882 349.839 478.988 367.944C511.175 400.333 512.583 447.206 482.207 480.198C471.343 491.866 462.089 497.7 447.404 502.126C412.802 512.184 371.763 492.671 358.285 459.477C353.859 448.815 353.255 443.384 352.048 406.368C350.841 372.571 349.836 362.714 346.214 352.052C344.002 344.809 341.99 338.774 341.99 338.774C341.99 338.573 347.623 340.183 354.664 342.597C365.326 346.017 372.769 346.62 405.359 347.022Z" fill="black"/>
<g clip-path="url(#clip0_150_989)">
<path d="M1026.36 85.3155V472.319H965.66L788.142 208.71H785.014V472.319H716.767V85.3155H777.84L955.174 349.113H958.485V85.3155H1026.36ZM1458.09 278.817C1458.09 320.516 1450.49 356.23 1435.28 385.962C1420.2 415.566 1399.59 438.242 1373.47 453.989C1347.47 469.736 1317.98 477.61 1284.99 477.61C1252 477.61 1222.44 469.736 1196.32 453.989C1170.32 438.116 1149.72 415.377 1134.51 385.772C1119.43 356.041 1111.88 320.389 1111.88 278.817C1111.88 237.119 1119.43 201.467 1134.51 171.862C1149.72 142.131 1170.32 119.392 1196.32 103.645C1222.44 87.898 1252 80.0244 1284.99 80.0244C1317.98 80.0244 1347.47 87.898 1373.47 103.645C1399.59 119.392 1420.2 142.131 1435.28 171.862C1450.49 201.467 1458.09 237.119 1458.09 278.817ZM1389.47 278.817C1389.47 249.464 1385 224.709 1376.05 204.553C1367.22 184.271 1354.95 168.965 1339.25 158.634C1323.56 148.178 1305.47 142.95 1284.99 142.95C1264.51 142.95 1246.42 148.178 1230.72 158.634C1215.02 168.965 1202.7 184.271 1193.74 204.553C1184.92 224.709 1180.5 249.464 1180.5 278.817C1180.5 308.17 1184.92 332.987 1193.74 353.27C1202.7 373.427 1215.02 388.733 1230.72 399.189C1246.42 409.519 1264.51 414.684 1284.99 414.684C1305.47 414.684 1323.56 409.519 1339.25 399.189C1354.95 388.733 1367.22 373.427 1376.05 353.27C1385 332.987 1389.47 308.17 1389.47 278.817ZM1671 472.319H1543.33V85.3155H1673.57C1710.98 85.3155 1743.11 93.0631 1769.97 108.558C1796.95 123.928 1817.68 146.037 1832.14 174.886C1846.62 203.735 1853.85 238.252 1853.85 278.439C1853.85 318.751 1846.55 353.396 1831.97 382.371C1817.49 411.345 1796.58 433.581 1769.23 449.076C1742.01 464.571 1709.26 472.319 1671 472.319ZM1611.58 411.66H1667.69C1693.93 411.66 1715.82 406.748 1733.36 396.921C1750.9 386.969 1764.08 372.167 1772.91 352.514C1781.74 332.736 1786.15 308.044 1786.15 278.439C1786.15 248.834 1781.74 224.269 1772.91 204.743C1764.08 185.09 1751.02 170.413 1733.73 160.713C1716.56 150.887 1695.22 145.974 1669.71 145.974H1611.58V411.66ZM2007.67 85.3155V472.319H1939.41V85.3155H2007.67ZM2150.67 472.319H2077.83L2210.45 85.3155H2294.7L2427.52 472.319H2354.68L2254.05 164.681H2251.11L2150.67 472.319ZM2153.07 320.579H2351.74V376.891H2153.07V320.579Z" fill="black"/>
</g>
<defs>
<clipPath id="clip0_150_989">
<rect width="1711.54" height="398.033" fill="white" transform="translate(716.46 79.6064)"/>
</clipPath>
</defs>
</svg>
