<svg width="1067" height="1067" viewBox="0 0 1067 1067" fill="none" xmlns="http://www.w3.org/2000/svg">
<rect x="52" y="47.9248" width="966" height="946" fill="white"/>
<path d="M0 533.334V1066.67H533.333H1066.67V533.334V0.00026989H533.333H0V533.334ZM410 282C451.733 289.334 489.2 322.8 499.333 361.867C500.667 367.2 501.733 382 502.667 405.867C503.467 425.734 504.4 444.134 504.8 446.667C506.267 454.934 514.8 469.2 524.267 479.067L533.333 488.667L542 479.734C550.667 470.667 555.733 462.534 558.667 452.667C559.467 449.734 560.667 433.334 561.333 416.267C563.467 360 568.933 342.8 592.533 317.734C611.2 297.867 628.933 287.6 652.933 282.8C675.467 278.134 692.8 279.6 714.4 288C747.867 300.934 771.867 327.2 782.133 362.267C789.867 388.8 787.2 414.534 773.6 445.334C766 462.8 744 483.2 721.2 493.867C704.4 501.867 698.933 502.8 658.667 504C618.4 505.334 611.067 506.667 596 514.934C587.6 519.6 572 531.6 572 533.467C572 535.6 588.4 546.8 599.733 552.267C610.8 557.6 611.067 557.734 631.733 558.8C702.133 562.667 697.2 562.134 709.467 566.534C736.667 576.534 760.533 595.867 771.867 617.334C778 629.067 783.867 647.067 785.6 660.134C788.4 680.934 783.867 704.134 772.4 728C763.467 746.534 736.4 769.734 713.067 778.667C680 791.467 644.133 787.734 615.067 768.4C604 761.067 586.133 743.6 579.467 733.467C566.4 713.734 563.067 698 561.467 649.067C560.133 614 559.2 607.6 553.467 597.867C549.733 591.6 534.4 574.667 532.533 574.667C530 574.667 516.667 589.867 512 598C506.133 608.134 504.4 620.267 502.8 661.6C502 680.4 500.667 698.934 499.867 702.934C499.067 706.8 495.467 716.134 492 723.467C477.333 753.867 446.133 777.467 412 784C401.2 786.134 379.067 785.734 368.667 783.334C337.467 776.134 310.533 756.8 294.4 729.867C288.667 720.267 286.4 714.534 282.4 698C280.267 689.334 280.8 656.8 283.333 644.667C289.733 613.734 313.467 585.867 347.067 570C361.467 563.067 371.6 561.467 410.133 560.134C456 558.4 461.333 557.2 479.733 545.467C493.067 536.934 495.333 534.4 493.467 530.934C491.6 527.467 477.067 517.867 463.333 510.934L452.533 505.6L412.533 504.134C390.533 503.334 369.2 502 365.2 501.2C355.733 499.334 335.2 489.6 324.8 482.134C314.133 474.534 301.733 461.334 295.6 451.2C275.333 417.6 275.067 368.667 294.8 335.067C300.4 325.467 320.8 304.8 331.2 298C355.067 282.534 381.733 277.067 410 282Z" fill="black"/>
<path d="M382.667 318.725C352.534 322.058 326.934 345.125 319.201 375.925C316.001 388.325 317.201 407.125 321.601 418.058C332.134 443.658 353.734 461.658 378.267 465.258C383.201 465.925 398.134 466.592 411.334 466.592C438.267 466.592 455.734 468.325 466.667 471.925C470.667 473.258 474.134 474.192 474.534 473.925C474.8 473.658 473.334 468.858 471.467 463.258C468.4 454.592 467.734 449.525 466.667 428.192C463.867 376.325 463.067 369.658 457.867 359.792C455.334 354.858 450 346.992 446 342.325C440.134 335.125 436.934 332.592 427.2 327.658C410.934 319.392 399.067 316.992 382.667 318.725Z" fill="black"/>
<path d="M650.933 321.791C633.066 328.458 616.533 343.124 608.533 359.391C603.199 370.058 602.399 376.458 600.133 422.191C598.933 446.724 598.399 450.324 594.666 461.258C592.533 467.924 590.666 473.658 590.666 473.924C590.666 474.058 595.333 472.858 601.066 470.991C610.533 467.924 614.133 467.524 651.333 466.458C686.266 465.524 692.399 464.991 699.333 462.591C729.733 452.191 751.999 417.391 748.799 385.658C746.399 361.924 728.933 336.591 707.733 325.791C692.399 318.058 666.133 316.191 650.933 321.791Z" fill="black"/>
<path d="M463.2 593.258C452.4 597.125 435.6 598.591 407.867 598.458C387.067 598.191 380.267 598.591 373.467 600.458C346.933 607.658 326.133 628.591 319.333 655.258C310.933 688.325 328.4 725.658 359.6 740.858L370 745.925H391.333H412.667L423.2 740.725C438.267 733.391 449.733 721.658 457.867 705.125L464.133 692.458L465.333 665.258C467.467 617.125 468 612.191 474 593.525C475.2 589.791 472.933 589.791 463.2 593.258Z" fill="black"/>
<path d="M592 591.659C592 592.325 593.467 597.525 595.2 603.392C598.933 615.792 599.6 622.459 601.333 662.325C602.8 695.525 604.4 702.725 612.933 715.525C628.933 739.659 663.467 752.992 691.333 745.925C710.133 741.125 724.667 730.725 735.867 713.792C755.733 684.192 752.4 648.725 727.333 621.525C709.2 601.925 703.333 600.059 653.333 598.592C617.2 597.525 610.4 596.725 598.8 592.592C592 590.192 592 590.192 592 591.659Z" fill="black"/>
</svg>
